<?xml version="1.0" encoding="utf-8"?>
<!-- Generator: Adobe Illustrator 23.0.3, SVG Export Plug-In . SVG Version: 6.00 Build 0)  -->
<svg version="1.1" id="Layer_1" xmlns="http://www.w3.org/2000/svg" xmlns:xlink="http://www.w3.org/1999/xlink" x="0px" y="0px"
	 viewBox="0 0 50 50" style="enable-background:new 0 0 50 50;" xml:space="preserve">
<style type="text/css">
	.st0{fill:url(#SVGID_1_);}
	.st1{fill:url(#SVGID_2_);}
	.st2{fill:url(#SVGID_3_);}
	.st3{fill:url(#SVGID_4_);}
	.st4{fill:url(#SVGID_5_);}
	.st5{fill:url(#SVGID_6_);}
	.st6{fill:url(#SVGID_7_);}
	.st7{fill:url(#SVGID_8_);}
	.st8{fill:url(#SVGID_9_);}
	.st9{fill:url(#SVGID_10_);}
	.st10{fill:url(#SVGID_11_);}
	.st11{fill:url(#SVGID_12_);}
	.st12{fill:url(#SVGID_13_);}
	.st13{fill:url(#SVGID_14_);}
	.st14{fill:url(#SVGID_15_);}
	.st15{fill:url(#SVGID_16_);}
	.st16{fill:url(#SVGID_17_);}
	.st17{fill:url(#SVGID_18_);}
	.st18{fill:url(#SVGID_19_);}
	.st19{fill:url(#SVGID_20_);}
	.st20{fill:url(#SVGID_21_);}
	.st21{fill:url(#SVGID_22_);}
	.st22{fill:url(#SVGID_23_);}
	.st23{fill:url(#SVGID_24_);}
	.st24{fill:url(#SVGID_25_);}
	.st25{fill:url(#SVGID_26_);}
	.st26{fill:url(#SVGID_27_);}
	.st27{fill:url(#SVGID_28_);}
	.st28{fill:url(#SVGID_29_);}
	.st29{fill:url(#SVGID_30_);}
	.st30{fill:url(#SVGID_31_);}
	.st31{fill:url(#SVGID_32_);}
	.st32{fill:url(#SVGID_33_);}
	.st33{fill:url(#SVGID_34_);}
	.st34{fill:url(#SVGID_35_);}
	.st35{fill:url(#SVGID_36_);}
	.st36{fill:url(#SVGID_37_);}
	.st37{fill:url(#SVGID_38_);}
	.st38{fill:url(#SVGID_39_);}
	.st39{fill:url(#SVGID_40_);}
	.st40{fill:url(#SVGID_41_);}
	.st41{fill:url(#SVGID_42_);}
	.st42{fill:url(#SVGID_43_);}
	.st43{fill:url(#SVGID_44_);}
	.st44{fill:url(#SVGID_45_);}
	.st45{fill:url(#SVGID_46_);}
	.st46{fill:url(#SVGID_47_);}
	.st47{fill:url(#SVGID_48_);}
	.st48{fill:url(#SVGID_49_);}
	.st49{fill:url(#SVGID_50_);}
	.st50{fill:url(#SVGID_51_);}
	.st51{fill:url(#SVGID_52_);}
	.st52{fill:url(#SVGID_53_);}
	.st53{fill:url(#SVGID_54_);}
	.st54{fill:url(#SVGID_55_);}
	.st55{fill:url(#SVGID_56_);}
	.st56{fill:url(#SVGID_57_);}
	.st57{fill:url(#SVGID_58_);}
	.st58{fill:url(#SVGID_59_);}
	.st59{fill:url(#SVGID_60_);}
	.st60{fill:url(#SVGID_61_);}
	.st61{fill:url(#SVGID_62_);}
	.st62{fill:url(#SVGID_63_);}
	.st63{fill:url(#SVGID_64_);}
	.st64{fill:url(#SVGID_65_);}
	.st65{fill:url(#SVGID_66_);}
	.st66{fill:url(#SVGID_67_);}
	.st67{fill:url(#SVGID_68_);}
	.st68{fill:url(#SVGID_69_);}
	.st69{fill:url(#SVGID_70_);}
	.st70{fill:url(#SVGID_71_);}
	.st71{fill:url(#SVGID_72_);}
	.st72{fill:url(#SVGID_73_);}
	.st73{fill:#222B39;}
	.st74{fill:#43D3E8;}
	.st75{fill:#FD0134;}
	.st76{fill:url(#SVGID_74_);}
	.st77{fill:url(#SVGID_75_);}
	.st78{fill:url(#SVGID_76_);}
	.st79{fill:#FFFFFF;}
</style>
<g>
	<g>
		<g>
			<g>
				<path d="M45.8,22.6h-1.8v-3.8c0-0.5-0.4-1-1-1h-4.8v-4.3c0-0.3-0.1-0.5-0.3-0.7l-6.7-6.7C31,6,30.8,5.9,30.5,5.9H13.8
					c-0.5,0-1,0.4-1,1v11H8c-0.5,0-1,0.4-1,1v3.8H5.2c-1.5,0-2.7,1.2-2.7,2.7v7c0,1.5,1.2,2.7,2.7,2.7h7.6v8.1c0,0.5,0.4,1,1,1h23.5
					c0.5,0,1-0.4,1-1v-8.1h7.6c1.5,0,2.7-1.2,2.7-2.7v-7C48.5,23.9,47.3,22.6,45.8,22.6z M38.2,19.8H42v2.9h-3.8V19.8z M31.5,9.1
					l3.4,3.4h-3.4V9.1z M14.7,7.8h14.9v5.7c0,0.5,0.4,1,1,1h5.7v8.1H14.7V7.8z M9,19.8h3.8v2.9H9V19.8z M36.3,42.2H14.7V31.7h21.6
					V42.2z M46.6,32.4c0,0.4-0.4,0.8-0.8,0.8h-7.6v-2.4c0-0.5-0.4-1-1-1H13.8c-0.5,0-1,0.4-1,1v2.4H5.2c-0.4,0-0.8-0.4-0.8-0.8v-7
					c0-0.4,0.4-0.8,0.8-0.8h40.6c0.4,0,0.8,0.4,0.8,0.8V32.4z"/>
				<path d="M18.8,17.4h-0.3c-0.5,0-1,0.4-1,1c0,0.5,0.4,1,1,1h0.3c0.5,0,1-0.4,1-1C19.8,17.9,19.3,17.4,18.8,17.4z"/>
				<path d="M33,17.4H22.7c-0.5,0-1,0.4-1,1c0,0.5,0.4,1,1,1H33c0.5,0,1-0.4,1-1C34,17.9,33.6,17.4,33,17.4z"/>
				<path d="M18.1,36.1h14.9c0.5,0,1-0.4,1-1c0-0.5-0.4-1-1-1H18.1c-0.5,0-1,0.4-1,1C17.1,35.7,17.5,36.1,18.1,36.1z"/>
				<path d="M18.1,39.7h4.6c0.5,0,1-0.4,1-1c0-0.5-0.4-1-1-1h-4.6c-0.5,0-1,0.4-1,1C17.1,39.3,17.5,39.7,18.1,39.7z"/>
			</g>
		</g>
	</g>
</g>
</svg>
